# WaveFront *.obj file (generated by Autodesk ATF)

mtllib door.mtl

g Body1

v 9.866360 0.000000 3.609321
v 9.224544 0.000000 3.609321
v 9.224544 0.100000 3.609321
v 9.866360 0.100000 3.609321
v 9.224544 0.000000 3.844132
v 9.224544 0.100000 3.844132
v 9.866360 0.000000 3.844132
v 9.866360 0.100000 3.844132
v 9.224544 -0.200000 6.333126
v 11.588305 -0.200000 6.333126
v 11.588305 -0.200000 4.251137
v 9.224544 -0.200000 4.251137
v 11.588305 0.000000 4.251137
v 9.224544 0.000000 4.251137
v 11.588305 0.000000 6.333126
v 9.224544 0.000000 6.333126
v 8.801885 0.000000 0.228047
v 12.010965 0.000000 0.228047
v 12.010965 -0.500000 0.228047
v 8.801885 -0.500000 0.228047
v 8.801885 0.000000 6.818402
v 8.801885 -0.500000 6.818402
v 12.010965 0.000000 6.818402
v 12.010965 -0.500000 6.818402
vt -0.000000 0.200000 0.000000
vt 0.641816 0.200000 0.000000
vt -0.000000 0.300000 0.000000
vt 0.641816 0.300000 0.000000
vt 0.000000 0.200000 0.000000
vt 0.234811 0.200000 0.000000
vt 0.000000 0.300000 0.000000
vt 0.234811 0.300000 0.000000
vt -0.000000 0.200000 0.000000
vt 0.234811 0.200000 0.000000
vt -0.000000 0.300000 0.000000
vt 0.234811 0.300000 0.000000
vt 0.000000 0.200000 0.000000
vt 0.641816 0.200000 0.000000
vt 0.000000 0.300000 0.000000
vt 0.641816 0.300000 0.000000
vt 0.320908 -0.540065 0.000000
vt 0.086097 -0.540065 0.000000
vt 0.320908 -1.181881 0.000000
vt 0.086097 -1.181881 0.000000
vt 2.809902 1.181881 0.000000
vt 0.727913 1.181881 0.000000
vt 2.809902 -1.181881 0.000000
vt 0.727913 -1.181881 0.000000
vt 2.363762 0.200000 0.000000
vt 0.000000 0.200000 0.000000
vt 2.363762 0.000000 0.000000
vt -0.000000 0.000000 0.000000
vt 2.081989 0.200000 0.000000
vt 0.000000 0.200000 0.000000
vt 2.081989 0.000000 0.000000
vt -0.000000 0.000000 0.000000
vt 2.363762 0.200000 0.000000
vt 0.000000 0.200000 0.000000
vt 2.363762 0.000000 0.000000
vt 0.000000 0.000000 0.000000
vt 2.081989 0.200000 0.000000
vt 0.000000 0.200000 0.000000
vt 2.081989 0.000000 0.000000
vt 0.000000 0.000000 0.000000
vt 0.000000 0.000000 0.000000
vt 3.209080 0.000000 0.000000
vt 0.000000 0.500000 0.000000
vt 3.209080 0.500000 0.000000
vt -0.000000 0.000000 0.000000
vt 6.590355 0.000000 0.000000
vt 0.000000 0.500000 0.000000
vt 6.590355 0.500000 0.000000
vt -0.000000 0.000000 0.000000
vt 3.209080 0.000000 0.000000
vt 0.000000 0.500000 0.000000
vt 3.209080 0.500000 0.000000
vt 0.000000 0.000000 0.000000
vt 6.590355 0.000000 0.000000
vt 0.000000 0.500000 0.000000
vt 6.590355 0.500000 0.000000
vt -0.540065 -0.086097 0.000000
vt -1.604540 3.295178 0.000000
vt -1.181881 -0.086097 0.000000
vt -1.604540 -3.295178 0.000000
vt -1.181881 -0.320908 0.000000
vt -1.181881 -0.727913 0.000000
vt -0.540065 -0.320908 0.000000
vt 1.181881 -0.727913 0.000000
vt 1.604540 3.295178 0.000000
vt 1.604540 -3.295178 0.000000
vt 1.181881 -2.809902 0.000000
vt -1.181881 -2.809902 0.000000
vt 3.295178 1.604540 0.000000
vt -3.295178 1.604540 0.000000
vt 3.295178 -1.604540 0.000000
vt -3.295178 -1.604540 0.000000
vn 0.000000 0.000000 -1.000000
vn 0.000000 0.000000 -1.000000
vn 0.000000 0.000000 -1.000000
vn 0.000000 0.000000 -1.000000
vn -1.000000 0.000000 0.000000
vn -1.000000 0.000000 0.000000
vn -1.000000 0.000000 0.000000
vn -1.000000 0.000000 0.000000
vn 1.000000 0.000000 0.000000
vn 1.000000 0.000000 0.000000
vn 1.000000 0.000000 0.000000
vn 1.000000 0.000000 0.000000
vn 0.000000 -0.000000 1.000000
vn 0.000000 -0.000000 1.000000
vn 0.000000 -0.000000 1.000000
vn 0.000000 -0.000000 1.000000
vn 0.000000 1.000000 0.000000
vn 0.000000 1.000000 0.000000
vn 0.000000 1.000000 0.000000
vn 0.000000 1.000000 0.000000
vn 0.000000 1.000000 0.000000
vn 0.000000 1.000000 0.000000
vn 0.000000 1.000000 0.000000
vn 0.000000 1.000000 0.000000
vn -0.000000 0.000000 1.000000
vn -0.000000 0.000000 1.000000
vn -0.000000 0.000000 1.000000
vn -0.000000 0.000000 1.000000
vn -1.000000 0.000000 0.000000
vn -1.000000 0.000000 0.000000
vn -1.000000 0.000000 0.000000
vn -1.000000 0.000000 0.000000
vn -0.000000 -0.000000 -1.000000
vn -0.000000 -0.000000 -1.000000
vn -0.000000 -0.000000 -1.000000
vn -0.000000 -0.000000 -1.000000
vn 1.000000 0.000000 0.000000
vn 1.000000 0.000000 0.000000
vn 1.000000 0.000000 0.000000
vn 1.000000 0.000000 0.000000
vn -0.000000 -0.000000 -1.000000
vn -0.000000 -0.000000 -1.000000
vn -0.000000 -0.000000 -1.000000
vn -0.000000 -0.000000 -1.000000
vn -1.000000 0.000000 0.000000
vn -1.000000 0.000000 0.000000
vn -1.000000 0.000000 0.000000
vn -1.000000 0.000000 0.000000
vn -0.000000 0.000000 1.000000
vn -0.000000 0.000000 1.000000
vn -0.000000 0.000000 1.000000
vn -0.000000 0.000000 1.000000
vn 1.000000 0.000000 0.000000
vn 1.000000 0.000000 0.000000
vn 1.000000 0.000000 0.000000
vn 1.000000 0.000000 0.000000
vn 0.000000 1.000000 0.000000
vn 0.000000 1.000000 0.000000
vn 0.000000 1.000000 0.000000
vn 0.000000 1.000000 0.000000
vn 0.000000 1.000000 0.000000
vn 0.000000 1.000000 0.000000
vn 0.000000 1.000000 0.000000
vn 0.000000 1.000000 0.000000
vn 0.000000 1.000000 0.000000
vn 0.000000 1.000000 0.000000
vn 0.000000 1.000000 0.000000
vn 0.000000 1.000000 0.000000
vn 0.000000 -1.000000 0.000000
vn 0.000000 -1.000000 0.000000
vn 0.000000 -1.000000 0.000000
vn 0.000000 -1.000000 0.000000
usemtl Steel_-_Satin
f 1/1/1 2/2/2 4/3/3
f 4/3/3 2/2/2 3/4/4
f 2/5/5 5/6/6 3/7/7
f 3/7/7 5/6/6 6/8/8
f 7/9/9 1/10/10 8/11/11
f 8/11/11 1/10/10 4/12/12
f 5/13/13 7/14/14 6/15/15
f 6/15/15 7/14/14 8/16/16
f 8/17/17 4/18/18 6/19/19
f 6/19/19 4/18/18 3/20/20
f 10/21/21 11/22/22 9/23/23
f 9/23/23 11/22/22 12/24/24
f 12/25/25 11/26/26 14/27/27
f 14/27/27 11/26/26 13/28/28
f 11/29/29 10/30/30 13/31/31
f 13/31/31 10/30/30 15/32/32
f 10/33/33 9/34/34 15/35/35
f 15/35/35 9/34/34 16/36/36
f 9/37/37 12/38/38 16/39/39
f 16/39/39 12/38/38 14/40/40
f 17/41/41 18/42/42 20/43/43
f 20/43/43 18/42/42 19/44/44
f 21/45/45 17/46/46 22/47/47
f 22/47/47 17/46/46 20/48/48
f 23/49/49 21/50/50 24/51/51
f 24/51/51 21/50/50 22/52/52
f 18/53/53 23/54/54 19/55/55
f 19/55/55 23/54/54 24/56/56
f 1/57/57 17/58/58 2/59/59
f 2/59/59 17/58/58 21/60/60
f 2/59/59 21/60/60 5/61/61
f 5/61/61 21/60/60 14/62/62
f 5/61/61 14/62/62 7/63/63
f 7/63/63 14/62/62 13/64/64
f 7/63/63 13/64/64 1/57/57
f 1/57/57 13/64/64 18/65/65
f 1/57/57 18/65/65 17/58/58
f 18/65/65 13/64/64 23/66/66
f 23/66/66 13/64/64 15/67/67
f 23/66/66 15/67/67 16/68/68
f 23/66/66 16/68/68 21/60/60
f 21/60/60 16/68/68 14/62/62
f 19/69/69 24/70/70 20/71/71
f 20/71/71 24/70/70 22/72/72
# 24 vertices
# 72 texture params
# 72 normals
# 44 facets

# 1 groups
